<svg xmlns="http://www.w3.org/2000/svg" xmlns:xlink="http://www.w3.org/1999/xlink" width="940" zoomAndPan="magnify" viewBox="0 0 705 374.999991" height="500" preserveAspectRatio="xMidYMid meet" version="1.0"><defs><filter x="0%" y="0%" width="100%" height="100%" id="id1"><feColorMatrix values="0 0 0 0 1 0 0 0 0 1 0 0 0 0 1 0 0 0 1 0" color-interpolation-filters="sRGB"/></filter><mask id="id2"><g filter="url(#id1)"><rect x="-70.5" width="846" fill="#000000" y="-37.499999" height="449.999989" fill-opacity="0.2784"/></g></mask><clipPath id="id3"><path d="M 0.699219 0.347656 L 278.199219 0.347656 L 278.199219 278.597656 L 0.699219 278.597656 Z M 0.699219 0.347656 " clip-rule="nonzero"/></clipPath><clipPath id="id4"><rect x="0" width="279" y="0" height="280"/></clipPath></defs><g mask="url(#id2)"><g transform="matrix(1, 0, 0, 1, 202, 45)"><g clip-path="url(#id4)"><g clip-path="url(#id3)"><path fill="#ffffff" d="M 278.09375 128.777344 C 278.101562 128.675781 278.078125 128.578125 278.046875 128.484375 C 278.046875 128.480469 278.050781 128.472656 278.046875 128.46875 L 250.394531 55.90625 C 250.390625 55.894531 250.378906 55.890625 250.375 55.882812 C 250.328125 55.773438 250.265625 55.671875 250.167969 55.597656 L 189.355469 7.257812 C 189.257812 7.183594 189.144531 7.128906 189.015625 7.105469 C 189.007812 7.105469 188.996094 7.101562 188.988281 7.101562 L 139.351562 0.355469 C 139.253906 0.34375 139.148438 0.351562 139.054688 0.378906 L 115.394531 7.09375 L 114.722656 7.09375 C 114.585938 7.09375 114.460938 7.132812 114.347656 7.199219 L 113.742188 7.5625 L 55.511719 24.101562 C 55.492188 24.105469 55.484375 24.125 55.464844 24.128906 C 55.386719 24.15625 55.316406 24.199219 55.25 24.253906 C 55.226562 24.277344 55.199219 24.292969 55.175781 24.320312 C 55.164062 24.332031 55.148438 24.339844 55.136719 24.355469 L 4.140625 90.5 C 4.125 90.519531 4.121094 90.542969 4.109375 90.566406 C 4.089844 90.59375 4.066406 90.621094 4.054688 90.652344 C 4.046875 90.671875 4.042969 90.695312 4.035156 90.714844 C 4.023438 90.753906 4.015625 90.792969 4.011719 90.835938 C 4.003906 90.859375 3.992188 90.878906 3.992188 90.90625 L 0.78125 149.078125 C 0.777344 149.128906 0.78125 149.179688 0.789062 149.230469 L 5.492188 178.652344 C 5.496094 178.691406 5.515625 178.722656 5.527344 178.761719 C 5.535156 178.785156 5.535156 178.8125 5.542969 178.835938 C 5.546875 178.839844 5.554688 178.84375 5.554688 178.851562 C 5.558594 178.859375 5.558594 178.867188 5.5625 178.875 L 29.304688 224.058594 C 29.34375 224.136719 29.398438 224.207031 29.46875 224.265625 L 57.3125 248.863281 C 57.355469 248.914062 57.40625 248.960938 57.460938 248.996094 L 89.660156 270.679688 C 89.75 270.738281 89.851562 270.777344 89.957031 270.796875 L 140.472656 278.644531 L 140.480469 278.644531 C 140.488281 278.644531 140.488281 278.648438 140.492188 278.648438 C 140.527344 278.652344 140.566406 278.65625 140.601562 278.65625 C 140.601562 278.65625 140.601562 278.65625 140.605469 278.65625 C 140.652344 278.65625 140.703125 278.648438 140.753906 278.640625 C 140.753906 278.640625 140.753906 278.640625 140.753906 278.636719 C 140.757812 278.636719 140.757812 278.636719 140.757812 278.636719 C 140.761719 278.636719 140.761719 278.636719 140.761719 278.636719 C 140.761719 278.636719 140.761719 278.636719 140.765625 278.636719 C 140.765625 278.636719 140.773438 278.636719 140.777344 278.632812 C 140.777344 278.636719 140.78125 278.632812 140.78125 278.632812 L 140.785156 278.632812 C 140.789062 278.632812 140.789062 278.628906 140.789062 278.628906 C 140.789062 278.628906 140.789062 278.628906 140.792969 278.628906 C 140.792969 278.632812 140.792969 278.628906 140.792969 278.628906 C 140.796875 278.625 140.800781 278.625 140.800781 278.625 L 223.351562 254.519531 C 223.382812 254.511719 223.398438 254.480469 223.425781 254.46875 C 223.507812 254.433594 223.570312 254.386719 223.632812 254.324219 C 223.660156 254.300781 223.703125 254.292969 223.726562 254.261719 L 273.945312 188.082031 C 274.023438 187.976562 274.058594 187.855469 274.074219 187.730469 C 274.078125 187.714844 274.089844 187.707031 274.09375 187.691406 Z M 272.679688 187.066406 L 250.960938 192.554688 L 276.351562 132.96875 Z M 184.542969 178.625 L 104.511719 150.484375 L 164.875 107.050781 Z M 164.875 104.707031 L 104.683594 65.363281 L 182.945312 42.992188 Z M 164.015625 105.878906 L 103.683594 149.292969 L 103.683594 66.445312 Z M 102.226562 149.542969 L 33.757812 115.964844 L 102.226562 66.523438 Z M 117.058594 230.050781 L 51.785156 193.503906 L 102.46875 152.050781 Z M 103.902344 151.8125 L 184.105469 180.011719 L 118.554688 230.148438 Z M 184.984375 181.167969 L 189.210938 241.121094 L 119.867188 230.972656 Z M 185.917969 178.121094 L 166.28125 106.679688 L 233.054688 113.347656 Z M 233.988281 114.539062 L 248.796875 192.675781 L 186.859375 179.296875 Z M 249.984375 191.132812 L 235.34375 113.882812 L 276.398438 129.144531 Z M 234.089844 111.078125 L 185.695312 43.039062 L 248.8125 56.714844 Z M 232.871094 111.867188 L 166.242188 105.214844 L 184.292969 43.570312 Z M 103.910156 64.074219 L 115.246094 8.890625 L 182.003906 41.75 Z M 102.410156 64.152344 L 51.199219 47.042969 L 113.675781 9.304688 Z M 101.382812 65.34375 L 33.539062 114.328125 L 49.992188 48.171875 Z M 31.941406 114.722656 L 5.777344 90.925781 L 48.152344 49.542969 Z M 48.828125 46.855469 L 11.597656 83.207031 L 54.011719 28.191406 Z M 31.484375 116.273438 L 6.875 175.058594 L 5.472656 92.613281 Z M 32.15625 118.433594 L 49.492188 192.507812 L 7.175781 178.097656 Z M 33.410156 117.410156 L 101.617188 150.863281 L 50.945312 192.316406 Z M 116.167969 231.21875 L 58.46875 247.460938 L 51.417969 194.960938 Z M 117.667969 232.308594 L 139.171875 276.644531 L 60.25 248.46875 Z M 140.875 276.828125 L 119.308594 232.363281 L 188.132812 242.433594 Z M 190.628906 240.527344 L 186.410156 180.6875 L 248.082031 194.007812 Z M 247.835938 196.074219 L 222.757812 252.910156 L 191.464844 241.722656 Z M 250.238281 194.234375 L 271.539062 188.855469 L 226.316406 248.449219 Z M 235.265625 112.300781 L 249.832031 58.515625 L 276.117188 127.488281 Z M 189.433594 9.179688 L 246.824219 54.796875 L 184.828125 41.363281 Z M 139.304688 1.816406 L 178.152344 7.09375 L 120.714844 7.09375 Z M 188.054688 8.546875 L 183.433594 40.835938 L 117.84375 8.546875 Z M 50.667969 45.667969 L 56.304688 25.386719 L 109.023438 10.414062 Z M 2.234375 149.078125 L 4.332031 111.097656 L 5.304688 168.289062 Z M 30.527344 223.265625 L 11.261719 186.597656 L 53.179688 243.28125 Z M 8.175781 179.972656 L 49.839844 194.160156 L 56.761719 245.679688 Z M 63.046875 251.007812 L 133.128906 276.03125 L 90.335938 269.382812 Z M 190.117188 242.785156 L 220.796875 253.753906 L 144.398438 276.0625 Z M 190.117188 242.785156 " fill-opacity="1" fill-rule="nonzero"/></g></g></g></g></svg>