<svg xmlns="http://www.w3.org/2000/svg" xmlns:xlink="http://www.w3.org/1999/xlink" width="940" zoomAndPan="magnify" viewBox="0 0 705 374.999991" height="500" preserveAspectRatio="xMidYMid meet" version="1.0"><defs><filter x="0%" y="0%" width="100%" height="100%" id="id1"><feColorMatrix values="0 0 0 0 1 0 0 0 0 1 0 0 0 0 1 0 0 0 1 0" color-interpolation-filters="sRGB"/></filter><mask id="id2"><g filter="url(#id1)"><rect x="-70.5" width="846" fill="#000000" y="-37.499999" height="449.999989" fill-opacity="0.2784"/></g></mask><clipPath id="id3"><path d="M 0.355469 0.347656 L 277.855469 0.347656 L 277.855469 278.597656 L 0.355469 278.597656 Z M 0.355469 0.347656 " clip-rule="nonzero"/></clipPath><clipPath id="id4"><rect x="0" width="278" y="0" height="280"/></clipPath><mask id="id5"><g filter="url(#id1)"><rect x="-70.5" width="846" fill="#000000" y="-37.499999" height="449.999989" fill-opacity="0.2784"/></g></mask><clipPath id="id6"><path d="M 0.878906 0.132812 L 97.628906 0.132812 L 97.628906 96.882812 L 0.878906 96.882812 Z M 0.878906 0.132812 " clip-rule="nonzero"/></clipPath><clipPath id="id7"><rect x="0" width="98" y="0" height="98"/></clipPath><mask id="id8"><g filter="url(#id1)"><rect x="-70.5" width="846" fill="#000000" y="-37.499999" height="449.999989" fill-opacity="0.2784"/></g></mask><clipPath id="id9"><path d="M 0.878906 0.371094 L 97.628906 0.371094 L 97.628906 97.121094 L 0.878906 97.121094 Z M 0.878906 0.371094 " clip-rule="nonzero"/></clipPath><clipPath id="id10"><rect x="0" width="98" y="0" height="98"/></clipPath><mask id="id11"><g filter="url(#id1)"><rect x="-70.5" width="846" fill="#000000" y="-37.499999" height="449.999989" fill-opacity="0.2784"/></g></mask><clipPath id="id12"><path d="M 0.714844 0.371094 L 97.464844 0.371094 L 97.464844 97.121094 L 0.714844 97.121094 Z M 0.714844 0.371094 " clip-rule="nonzero"/></clipPath><clipPath id="id13"><rect x="0" width="98" y="0" height="98"/></clipPath><mask id="id14"><g filter="url(#id1)"><rect x="-70.5" width="846" fill="#000000" y="-37.499999" height="449.999989" fill-opacity="0.2784"/></g></mask><clipPath id="id15"><path d="M 0.714844 0.132812 L 97.464844 0.132812 L 97.464844 96.882812 L 0.714844 96.882812 Z M 0.714844 0.132812 " clip-rule="nonzero"/></clipPath><clipPath id="id16"><rect x="0" width="98" y="0" height="98"/></clipPath></defs><rect x="-70.5" width="846" fill="#ffffff" y="-37.499999" height="449.999989" fill-opacity="1"/><rect x="-70.5" width="846" fill="#222225" y="-37.499999" height="449.999989" fill-opacity="1"/><rect x="-70.5" width="846" fill="#ffffff" y="-37.499999" height="449.999989" fill-opacity="1"/><rect x="-70.5" width="846" fill="#222225" y="-37.499999" height="449.999989" fill-opacity="1"/><g mask="url(#id2)"><g transform="matrix(1, 0, 0, 1, 215, 45)"><g clip-path="url(#id4)"><g clip-path="url(#id3)"><path fill="#ffffff" d="M 277.75 128.777344 C 277.753906 128.675781 277.734375 128.578125 277.703125 128.484375 C 277.703125 128.480469 277.703125 128.472656 277.703125 128.46875 L 250.050781 55.90625 C 250.042969 55.894531 250.035156 55.890625 250.03125 55.882812 C 249.984375 55.773438 249.921875 55.671875 249.824219 55.597656 L 189.011719 7.257812 C 188.914062 7.183594 188.800781 7.128906 188.671875 7.105469 C 188.664062 7.105469 188.652344 7.101562 188.644531 7.101562 L 139.007812 0.355469 C 138.910156 0.34375 138.804688 0.351562 138.710938 0.378906 L 115.050781 7.09375 L 114.378906 7.09375 C 114.242188 7.09375 114.113281 7.132812 114.003906 7.199219 C 114.003906 7.199219 114.003906 7.199219 114 7.199219 L 113.398438 7.5625 L 55.167969 24.101562 C 55.148438 24.105469 55.136719 24.125 55.121094 24.128906 C 55.042969 24.15625 54.972656 24.199219 54.90625 24.253906 C 54.878906 24.277344 54.855469 24.292969 54.832031 24.320312 C 54.816406 24.332031 54.800781 24.339844 54.789062 24.355469 L 3.796875 90.5 C 3.78125 90.519531 3.777344 90.542969 3.765625 90.566406 C 3.746094 90.59375 3.722656 90.621094 3.710938 90.652344 C 3.703125 90.671875 3.699219 90.695312 3.691406 90.714844 C 3.679688 90.753906 3.671875 90.792969 3.664062 90.835938 C 3.660156 90.859375 3.648438 90.878906 3.648438 90.90625 L 0.4375 149.078125 C 0.433594 149.128906 0.4375 149.179688 0.445312 149.230469 L 5.144531 178.652344 C 5.152344 178.691406 5.171875 178.722656 5.183594 178.761719 C 5.191406 178.785156 5.191406 178.8125 5.199219 178.835938 C 5.203125 178.839844 5.207031 178.84375 5.210938 178.851562 C 5.214844 178.859375 5.214844 178.867188 5.21875 178.875 L 28.960938 224.058594 C 29 224.136719 29.054688 224.207031 29.121094 224.265625 L 56.96875 248.863281 C 57.011719 248.914062 57.0625 248.960938 57.117188 248.996094 L 89.316406 270.679688 C 89.40625 270.738281 89.507812 270.777344 89.613281 270.796875 L 140.128906 278.644531 L 140.136719 278.644531 C 140.140625 278.644531 140.140625 278.648438 140.144531 278.648438 C 140.183594 278.652344 140.21875 278.65625 140.257812 278.65625 C 140.257812 278.65625 140.257812 278.65625 140.261719 278.65625 C 140.308594 278.65625 140.359375 278.648438 140.410156 278.640625 C 140.410156 278.640625 140.410156 278.640625 140.410156 278.636719 C 140.414062 278.636719 140.414062 278.636719 140.414062 278.636719 C 140.414062 278.636719 140.414062 278.636719 140.417969 278.636719 C 140.421875 278.636719 140.425781 278.636719 140.429688 278.632812 C 140.429688 278.632812 140.429688 278.632812 140.433594 278.632812 C 140.433594 278.636719 140.4375 278.632812 140.4375 278.632812 L 140.441406 278.632812 C 140.441406 278.632812 140.441406 278.628906 140.445312 278.628906 C 140.445312 278.628906 140.445312 278.628906 140.449219 278.628906 C 140.449219 278.632812 140.449219 278.628906 140.449219 278.628906 C 140.453125 278.625 140.453125 278.625 140.457031 278.625 L 223.007812 254.519531 C 223.039062 254.511719 223.054688 254.480469 223.082031 254.46875 C 223.164062 254.433594 223.226562 254.386719 223.289062 254.324219 C 223.316406 254.300781 223.355469 254.292969 223.378906 254.261719 L 273.601562 188.082031 C 273.679688 187.976562 273.714844 187.855469 273.730469 187.730469 C 273.734375 187.714844 273.746094 187.707031 273.746094 187.691406 Z M 272.335938 187.066406 L 250.613281 192.554688 L 276.007812 132.96875 Z M 184.199219 178.625 L 104.164062 150.484375 L 164.527344 107.050781 Z M 164.53125 104.707031 L 104.339844 65.363281 L 182.601562 42.992188 Z M 163.671875 105.878906 L 103.339844 149.292969 L 103.339844 66.445312 Z M 101.882812 149.542969 L 33.414062 115.964844 L 101.882812 66.523438 Z M 116.710938 230.050781 L 51.441406 193.503906 L 102.121094 152.050781 Z M 103.558594 151.8125 L 183.761719 180.011719 L 118.210938 230.148438 Z M 184.640625 181.167969 L 188.867188 241.121094 L 119.523438 230.972656 Z M 185.570312 178.121094 L 165.9375 106.679688 L 232.710938 113.347656 Z M 233.640625 114.539062 L 248.453125 192.675781 L 186.515625 179.296875 Z M 249.640625 191.132812 L 234.996094 113.882812 L 276.054688 129.144531 Z M 233.746094 111.078125 L 185.347656 43.039062 L 248.46875 56.714844 Z M 232.527344 111.867188 L 165.898438 105.214844 L 183.945312 43.570312 Z M 103.566406 64.074219 L 114.902344 8.890625 L 181.660156 41.75 Z M 102.0625 64.152344 L 50.855469 47.042969 L 113.332031 9.304688 Z M 101.039062 65.34375 L 33.191406 114.328125 L 49.648438 48.171875 Z M 31.597656 114.722656 L 5.429688 90.925781 L 47.808594 49.542969 Z M 48.484375 46.855469 L 11.253906 83.207031 L 53.667969 28.191406 Z M 31.140625 116.273438 L 6.53125 175.058594 L 5.128906 92.613281 Z M 31.8125 118.433594 L 49.148438 192.507812 L 6.832031 178.097656 Z M 33.066406 117.410156 L 101.273438 150.863281 L 50.597656 192.316406 Z M 115.824219 231.21875 L 58.125 247.460938 L 51.070312 194.960938 Z M 117.324219 232.308594 L 138.824219 276.644531 L 59.902344 248.46875 Z M 140.53125 276.828125 L 118.964844 232.363281 L 187.785156 242.433594 Z M 190.285156 240.527344 L 186.066406 180.6875 L 247.738281 194.007812 Z M 247.492188 196.074219 L 222.414062 252.910156 L 191.117188 241.722656 Z M 249.894531 194.234375 L 271.195312 188.855469 L 225.96875 248.449219 Z M 234.917969 112.300781 L 249.488281 58.515625 L 275.773438 127.488281 Z M 189.089844 9.179688 L 246.480469 54.796875 L 184.484375 41.363281 Z M 138.960938 1.816406 L 177.808594 7.09375 L 120.371094 7.09375 Z M 187.710938 8.546875 L 183.089844 40.835938 L 117.5 8.546875 Z M 50.324219 45.667969 L 55.960938 25.386719 L 108.679688 10.414062 Z M 1.890625 149.078125 L 3.988281 111.097656 L 4.957031 168.289062 Z M 30.183594 223.265625 L 10.917969 186.597656 L 52.835938 243.28125 Z M 7.828125 179.972656 L 49.496094 194.160156 L 56.417969 245.679688 Z M 62.699219 251.007812 L 132.785156 276.03125 L 89.992188 269.382812 Z M 189.773438 242.785156 L 220.453125 253.753906 L 144.054688 276.0625 Z M 189.773438 242.785156 " fill-opacity="1" fill-rule="nonzero"/></g></g></g></g><g mask="url(#id5)"><g transform="matrix(1, 0, 0, 1, 15, 12)"><g clip-path="url(#id7)"><g clip-path="url(#id6)"><path fill="#ffffff" d="M 97.597656 44.785156 C 97.597656 44.75 97.59375 44.71875 97.582031 44.683594 C 97.582031 44.683594 97.582031 44.679688 97.582031 44.679688 L 87.9375 19.449219 C 87.9375 19.445312 87.933594 19.445312 87.933594 19.441406 C 87.914062 19.402344 87.894531 19.367188 87.859375 19.339844 L 66.65625 2.535156 C 66.621094 2.507812 66.582031 2.488281 66.535156 2.480469 C 66.535156 2.480469 66.53125 2.480469 66.527344 2.480469 L 49.21875 0.132812 C 49.183594 0.128906 49.148438 0.132812 49.117188 0.140625 L 40.867188 2.476562 L 40.632812 2.476562 C 40.585938 2.476562 40.539062 2.492188 40.5 2.511719 L 40.289062 2.640625 L 19.984375 8.390625 C 19.980469 8.390625 19.976562 8.398438 19.96875 8.398438 C 19.941406 8.410156 19.917969 8.425781 19.894531 8.441406 C 19.886719 8.449219 19.875 8.457031 19.867188 8.464844 C 19.863281 8.472656 19.859375 8.472656 19.855469 8.480469 L 2.074219 31.476562 C 2.066406 31.484375 2.066406 31.492188 2.0625 31.5 C 2.054688 31.511719 2.046875 31.519531 2.042969 31.53125 C 2.039062 31.539062 2.039062 31.546875 2.035156 31.550781 C 2.03125 31.566406 2.027344 31.578125 2.027344 31.59375 C 2.023438 31.601562 2.019531 31.609375 2.019531 31.617188 L 0.902344 51.84375 C 0.898438 51.863281 0.902344 51.882812 0.902344 51.898438 L 2.542969 62.128906 C 2.546875 62.140625 2.550781 62.152344 2.554688 62.167969 C 2.558594 62.175781 2.558594 62.183594 2.5625 62.191406 C 2.5625 62.195312 2.566406 62.195312 2.566406 62.199219 C 2.566406 62.199219 2.566406 62.203125 2.570312 62.207031 L 10.847656 77.917969 C 10.859375 77.945312 10.878906 77.96875 10.902344 77.988281 L 20.613281 86.542969 C 20.628906 86.558594 20.644531 86.574219 20.664062 86.589844 L 31.890625 94.128906 C 31.921875 94.148438 31.957031 94.160156 31.996094 94.167969 L 49.609375 96.898438 L 49.613281 96.898438 C 49.613281 96.898438 49.613281 96.898438 49.617188 96.898438 C 49.628906 96.898438 49.640625 96.902344 49.65625 96.902344 C 49.671875 96.902344 49.691406 96.898438 49.707031 96.894531 C 49.710938 96.894531 49.710938 96.894531 49.710938 96.894531 C 49.710938 96.894531 49.714844 96.894531 49.714844 96.894531 C 49.714844 96.894531 49.71875 96.894531 49.71875 96.894531 L 49.71875 96.890625 C 49.71875 96.890625 49.722656 96.890625 49.722656 96.890625 C 49.722656 96.890625 49.722656 96.890625 49.726562 96.890625 L 78.507812 88.507812 C 78.519531 88.503906 78.527344 88.496094 78.535156 88.492188 C 78.5625 88.476562 78.585938 88.460938 78.605469 88.441406 C 78.617188 88.433594 78.632812 88.429688 78.640625 88.417969 L 96.152344 65.40625 C 96.179688 65.371094 96.191406 65.328125 96.195312 65.285156 C 96.195312 65.28125 96.203125 65.277344 96.203125 65.273438 Z M 95.710938 65.054688 L 88.136719 66.960938 L 96.988281 46.242188 Z M 64.976562 62.121094 L 37.070312 52.335938 L 58.117188 37.230469 Z M 58.121094 36.417969 L 37.128906 22.738281 L 64.417969 14.957031 Z M 57.820312 36.824219 L 36.78125 51.921875 L 36.78125 23.113281 Z M 36.273438 52.007812 L 12.398438 40.332031 L 36.273438 23.140625 Z M 41.445312 80 L 18.6875 67.292969 L 36.359375 52.878906 Z M 36.859375 52.796875 L 64.824219 62.601562 L 41.96875 80.035156 Z M 65.128906 63.003906 L 66.605469 83.851562 L 42.425781 80.320312 Z M 65.457031 61.945312 L 58.609375 37.101562 L 81.894531 39.421875 Z M 82.21875 39.835938 L 87.382812 67.003906 L 65.785156 62.351562 Z M 87.796875 66.46875 L 82.691406 39.605469 L 97.007812 44.914062 Z M 82.253906 38.632812 L 65.378906 14.976562 L 87.386719 19.730469 Z M 81.828125 38.90625 L 58.597656 36.59375 L 64.890625 15.160156 Z M 36.859375 22.289062 L 40.8125 3.101562 L 64.089844 14.527344 Z M 36.335938 22.316406 L 18.480469 16.367188 L 40.265625 3.246094 Z M 35.980469 22.730469 L 12.324219 39.761719 L 18.0625 16.761719 Z M 11.765625 39.902344 L 2.640625 31.625 L 17.417969 17.238281 Z M 17.65625 16.300781 L 4.671875 28.941406 L 19.460938 9.8125 Z M 11.605469 40.441406 L 3.027344 60.878906 L 2.535156 32.210938 Z M 11.839844 41.191406 L 17.886719 66.945312 L 3.132812 61.9375 Z M 12.277344 40.835938 L 36.0625 52.464844 L 18.390625 66.878906 Z M 41.136719 80.40625 L 21.015625 86.054688 L 18.558594 67.800781 Z M 41.65625 80.785156 L 49.15625 96.203125 L 21.636719 86.40625 Z M 49.75 96.265625 L 42.230469 80.804688 L 66.226562 84.304688 Z M 67.097656 83.644531 L 65.628906 62.835938 L 87.132812 67.46875 Z M 87.046875 68.1875 L 78.300781 87.949219 L 67.390625 84.058594 Z M 87.882812 67.546875 L 95.3125 65.675781 L 79.542969 86.398438 Z M 82.664062 39.058594 L 87.742188 20.355469 L 96.90625 44.339844 Z M 66.683594 3.203125 L 86.695312 19.0625 L 65.078125 14.390625 Z M 49.203125 0.640625 L 62.75 2.476562 L 42.71875 2.476562 Z M 66.203125 2.980469 L 64.589844 14.207031 L 41.71875 2.980469 Z M 18.296875 15.890625 L 20.261719 8.835938 L 38.644531 3.632812 Z M 1.40625 51.847656 L 2.140625 38.640625 L 2.476562 58.523438 Z M 11.273438 77.640625 L 4.554688 64.890625 L 19.171875 84.601562 Z M 3.480469 62.589844 L 18.007812 67.519531 L 20.421875 85.433594 Z M 22.613281 87.289062 L 47.050781 95.988281 L 32.128906 93.675781 Z M 66.921875 84.429688 L 77.617188 88.242188 L 50.980469 96 Z M 66.921875 84.429688 " fill-opacity="1" fill-rule="nonzero"/></g></g></g></g><g mask="url(#id8)"><g transform="matrix(1, 0, 0, 1, 15, 265)"><g clip-path="url(#id10)"><g clip-path="url(#id9)"><path fill="#ffffff" d="M 97.597656 45.027344 C 97.597656 44.992188 97.59375 44.957031 97.582031 44.925781 C 97.582031 44.925781 97.582031 44.921875 97.582031 44.921875 L 87.9375 19.691406 C 87.9375 19.6875 87.933594 19.683594 87.933594 19.679688 C 87.914062 19.644531 87.894531 19.609375 87.859375 19.582031 L 66.65625 2.773438 C 66.621094 2.75 66.582031 2.730469 66.535156 2.722656 C 66.535156 2.722656 66.53125 2.71875 66.527344 2.71875 L 49.21875 0.375 C 49.183594 0.371094 49.148438 0.375 49.117188 0.382812 L 40.867188 2.71875 L 40.632812 2.71875 C 40.585938 2.71875 40.539062 2.730469 40.5 2.753906 L 40.289062 2.878906 L 19.984375 8.632812 C 19.980469 8.632812 19.976562 8.636719 19.96875 8.640625 C 19.941406 8.652344 19.917969 8.664062 19.894531 8.683594 C 19.886719 8.691406 19.875 8.699219 19.867188 8.707031 C 19.863281 8.710938 19.859375 8.714844 19.855469 8.71875 L 2.074219 31.71875 C 2.066406 31.726562 2.066406 31.734375 2.0625 31.742188 C 2.054688 31.75 2.046875 31.761719 2.042969 31.773438 C 2.039062 31.777344 2.039062 31.785156 2.035156 31.792969 C 2.03125 31.808594 2.027344 31.820312 2.027344 31.835938 C 2.023438 31.84375 2.019531 31.851562 2.019531 31.859375 L 0.902344 52.085938 C 0.898438 52.105469 0.902344 52.121094 0.902344 52.140625 L 2.542969 62.371094 C 2.546875 62.382812 2.550781 62.394531 2.554688 62.40625 C 2.558594 62.414062 2.558594 62.425781 2.5625 62.433594 C 2.5625 62.433594 2.566406 62.4375 2.566406 62.4375 C 2.566406 62.441406 2.566406 62.445312 2.570312 62.445312 L 10.847656 78.15625 C 10.859375 78.183594 10.878906 78.210938 10.902344 78.230469 L 20.613281 86.78125 C 20.628906 86.800781 20.644531 86.816406 20.664062 86.828125 L 31.890625 94.367188 C 31.921875 94.390625 31.957031 94.402344 31.996094 94.410156 L 49.609375 97.136719 L 49.613281 97.136719 C 49.613281 97.136719 49.613281 97.140625 49.617188 97.140625 C 49.628906 97.140625 49.640625 97.140625 49.65625 97.140625 C 49.671875 97.140625 49.691406 97.140625 49.707031 97.136719 C 49.710938 97.136719 49.710938 97.136719 49.710938 97.136719 C 49.710938 97.132812 49.714844 97.132812 49.714844 97.132812 C 49.714844 97.132812 49.71875 97.132812 49.71875 97.132812 C 49.71875 97.132812 49.722656 97.132812 49.722656 97.132812 C 49.722656 97.132812 49.722656 97.132812 49.726562 97.132812 L 78.507812 88.75 C 78.519531 88.746094 78.527344 88.734375 78.535156 88.730469 C 78.5625 88.71875 78.585938 88.703125 78.605469 88.683594 C 78.617188 88.671875 78.632812 88.671875 78.640625 88.660156 L 96.152344 65.648438 C 96.179688 65.609375 96.191406 65.570312 96.195312 65.527344 C 96.195312 65.519531 96.203125 65.519531 96.203125 65.511719 Z M 95.710938 65.296875 L 88.136719 67.203125 L 96.988281 46.484375 Z M 64.976562 62.359375 L 37.070312 52.574219 L 58.117188 37.472656 Z M 58.121094 36.65625 L 37.128906 22.976562 L 64.417969 15.199219 Z M 57.820312 37.066406 L 36.78125 52.160156 L 36.78125 23.355469 Z M 36.273438 52.25 L 12.398438 40.570312 L 36.273438 23.382812 Z M 41.445312 80.242188 L 18.6875 67.535156 L 36.359375 53.121094 Z M 36.859375 53.039062 L 64.824219 62.84375 L 41.96875 80.277344 Z M 65.128906 63.246094 L 66.605469 84.089844 L 42.425781 80.5625 Z M 65.457031 62.183594 L 58.609375 37.34375 L 81.894531 39.664062 Z M 82.21875 40.078125 L 87.382812 67.246094 L 65.785156 62.59375 Z M 87.796875 66.707031 L 82.691406 39.847656 L 97.007812 45.15625 Z M 82.253906 38.871094 L 65.378906 15.214844 L 87.386719 19.972656 Z M 81.828125 39.148438 L 58.597656 36.835938 L 64.890625 15.402344 Z M 36.859375 22.53125 L 40.8125 3.339844 L 64.089844 14.765625 Z M 36.335938 22.558594 L 18.480469 16.609375 L 40.265625 3.484375 Z M 35.980469 22.96875 L 12.324219 40.003906 L 18.0625 17 Z M 11.765625 40.140625 L 2.640625 31.867188 L 17.417969 17.476562 Z M 17.65625 16.542969 L 4.671875 29.183594 L 19.460938 10.054688 Z M 11.605469 40.679688 L 3.027344 61.121094 L 2.535156 32.453125 Z M 11.839844 41.429688 L 17.886719 67.1875 L 3.132812 62.175781 Z M 12.277344 41.074219 L 36.0625 52.707031 L 18.390625 67.121094 Z M 41.136719 80.648438 L 21.015625 86.292969 L 18.558594 68.039062 Z M 41.65625 81.027344 L 49.15625 96.441406 L 21.636719 86.644531 Z M 49.75 96.503906 L 42.230469 81.042969 L 66.226562 84.546875 Z M 67.097656 83.882812 L 65.628906 63.078125 L 87.132812 67.707031 Z M 87.046875 68.425781 L 78.300781 88.1875 L 67.390625 84.300781 Z M 87.882812 67.789062 L 95.3125 65.917969 L 79.542969 86.636719 Z M 82.664062 39.296875 L 87.742188 20.597656 L 96.90625 44.578125 Z M 66.683594 3.441406 L 86.695312 19.304688 L 65.078125 14.632812 Z M 49.203125 0.882812 L 62.75 2.71875 L 42.71875 2.71875 Z M 66.203125 3.222656 L 64.589844 14.449219 L 41.71875 3.222656 Z M 18.296875 16.128906 L 20.261719 9.078125 L 38.644531 3.871094 Z M 1.40625 52.085938 L 2.140625 38.878906 L 2.476562 58.765625 Z M 11.273438 77.882812 L 4.554688 65.132812 L 19.171875 84.839844 Z M 3.480469 62.828125 L 18.007812 67.761719 L 20.421875 85.675781 Z M 22.613281 87.527344 L 47.050781 96.230469 L 32.128906 93.917969 Z M 66.921875 84.667969 L 77.617188 88.484375 L 50.980469 96.238281 Z M 66.921875 84.667969 " fill-opacity="1" fill-rule="nonzero"/></g></g></g></g><g mask="url(#id11)"><g transform="matrix(1, 0, 0, 1, 589, 265)"><g clip-path="url(#id13)"><g clip-path="url(#id12)"><path fill="#ffffff" d="M 97.433594 45.027344 C 97.4375 44.992188 97.429688 44.957031 97.417969 44.925781 C 97.417969 44.925781 97.417969 44.921875 97.417969 44.921875 L 87.773438 19.691406 C 87.773438 19.6875 87.769531 19.683594 87.769531 19.679688 C 87.75 19.644531 87.730469 19.609375 87.695312 19.582031 L 66.492188 2.773438 C 66.457031 2.75 66.417969 2.730469 66.371094 2.722656 C 66.371094 2.722656 66.367188 2.71875 66.363281 2.71875 L 49.054688 0.375 C 49.019531 0.371094 48.984375 0.375 48.953125 0.382812 L 40.703125 2.71875 L 40.46875 2.71875 C 40.421875 2.71875 40.375 2.730469 40.335938 2.753906 L 40.125 2.878906 L 19.820312 8.632812 C 19.816406 8.632812 19.8125 8.636719 19.804688 8.640625 C 19.777344 8.652344 19.753906 8.664062 19.730469 8.683594 C 19.722656 8.691406 19.710938 8.699219 19.703125 8.707031 C 19.699219 8.710938 19.695312 8.714844 19.691406 8.71875 L 1.910156 31.71875 C 1.902344 31.726562 1.902344 31.734375 1.898438 31.742188 C 1.890625 31.75 1.882812 31.761719 1.878906 31.773438 C 1.875 31.777344 1.875 31.785156 1.871094 31.792969 C 1.867188 31.808594 1.863281 31.820312 1.863281 31.835938 C 1.863281 31.84375 1.855469 31.851562 1.855469 31.859375 L 0.738281 52.085938 C 0.734375 52.105469 0.738281 52.121094 0.738281 52.140625 L 2.378906 62.371094 C 2.382812 62.382812 2.386719 62.394531 2.390625 62.40625 C 2.394531 62.414062 2.394531 62.425781 2.398438 62.433594 C 2.398438 62.433594 2.402344 62.4375 2.402344 62.4375 C 2.402344 62.441406 2.402344 62.445312 2.40625 62.445312 L 10.683594 78.15625 C 10.695312 78.183594 10.714844 78.210938 10.738281 78.230469 L 20.449219 86.78125 C 20.464844 86.800781 20.480469 86.816406 20.5 86.828125 L 31.730469 94.367188 C 31.757812 94.390625 31.792969 94.402344 31.832031 94.410156 L 49.445312 97.136719 L 49.449219 97.136719 C 49.449219 97.136719 49.449219 97.140625 49.453125 97.140625 C 49.464844 97.140625 49.476562 97.140625 49.492188 97.140625 C 49.507812 97.140625 49.527344 97.140625 49.542969 97.136719 C 49.546875 97.136719 49.546875 97.136719 49.546875 97.136719 C 49.550781 97.132812 49.550781 97.132812 49.550781 97.132812 C 49.554688 97.132812 49.554688 97.132812 49.554688 97.132812 C 49.554688 97.132812 49.558594 97.132812 49.558594 97.132812 C 49.558594 97.132812 49.558594 97.132812 49.5625 97.132812 L 78.34375 88.75 C 78.355469 88.746094 78.363281 88.734375 78.371094 88.730469 C 78.398438 88.71875 78.421875 88.703125 78.441406 88.683594 C 78.453125 88.671875 78.46875 88.671875 78.476562 88.660156 L 95.988281 65.648438 C 96.015625 65.609375 96.027344 65.570312 96.03125 65.527344 C 96.03125 65.519531 96.039062 65.519531 96.039062 65.511719 Z M 95.546875 65.296875 L 87.972656 67.203125 L 96.824219 46.484375 Z M 64.8125 62.359375 L 36.90625 52.574219 L 57.953125 37.472656 Z M 57.957031 36.65625 L 36.964844 22.976562 L 64.253906 15.199219 Z M 57.65625 37.066406 L 36.617188 52.160156 L 36.617188 23.355469 Z M 36.109375 52.25 L 12.234375 40.570312 L 36.109375 23.382812 Z M 41.28125 80.242188 L 18.523438 67.535156 L 36.195312 53.121094 Z M 36.695312 53.039062 L 64.660156 62.84375 L 41.804688 80.277344 Z M 64.964844 63.246094 L 66.441406 84.089844 L 42.261719 80.5625 Z M 65.292969 62.183594 L 58.445312 37.34375 L 81.730469 39.664062 Z M 82.054688 40.078125 L 87.21875 67.246094 L 65.621094 62.59375 Z M 87.632812 66.707031 L 82.527344 39.847656 L 96.84375 45.15625 Z M 82.089844 38.871094 L 65.214844 15.214844 L 87.222656 19.972656 Z M 81.664062 39.148438 L 58.433594 36.835938 L 64.726562 15.402344 Z M 36.695312 22.53125 L 40.648438 3.339844 L 63.925781 14.765625 Z M 36.171875 22.558594 L 18.316406 16.609375 L 40.101562 3.484375 Z M 35.816406 22.96875 L 12.160156 40.003906 L 17.898438 17 Z M 11.601562 40.140625 L 2.480469 31.867188 L 17.253906 17.476562 Z M 17.492188 16.542969 L 4.507812 29.183594 L 19.296875 10.054688 Z M 11.441406 40.679688 L 2.863281 61.121094 L 2.375 32.453125 Z M 11.675781 41.429688 L 17.722656 67.1875 L 2.96875 62.175781 Z M 12.113281 41.074219 L 35.898438 52.707031 L 18.226562 67.121094 Z M 40.972656 80.648438 L 20.851562 86.292969 L 18.394531 68.039062 Z M 41.496094 81.027344 L 48.992188 96.441406 L 21.472656 86.644531 Z M 49.585938 96.503906 L 42.066406 81.042969 L 66.0625 84.546875 Z M 66.933594 83.882812 L 65.464844 63.078125 L 86.96875 67.707031 Z M 86.882812 68.425781 L 78.136719 88.1875 L 67.226562 84.300781 Z M 87.71875 67.789062 L 95.148438 65.917969 L 79.378906 86.636719 Z M 82.5 39.296875 L 87.578125 20.597656 L 96.742188 44.578125 Z M 66.519531 3.441406 L 86.53125 19.304688 L 64.914062 14.632812 Z M 49.039062 0.882812 L 62.585938 2.71875 L 42.558594 2.71875 Z M 66.039062 3.222656 L 64.425781 14.449219 L 41.554688 3.222656 Z M 18.132812 16.128906 L 20.097656 9.078125 L 38.480469 3.871094 Z M 1.242188 52.085938 L 1.976562 38.878906 L 2.3125 58.765625 Z M 11.109375 77.882812 L 4.390625 65.132812 L 19.007812 84.839844 Z M 3.316406 62.828125 L 17.84375 67.761719 L 20.257812 85.675781 Z M 22.449219 87.527344 L 46.886719 96.230469 L 31.964844 93.917969 Z M 66.757812 84.667969 L 77.453125 88.484375 L 50.816406 96.238281 Z M 66.757812 84.667969 " fill-opacity="1" fill-rule="nonzero"/></g></g></g></g><g mask="url(#id14)"><g transform="matrix(1, 0, 0, 1, 589, 12)"><g clip-path="url(#id16)"><g clip-path="url(#id15)"><path fill="#ffffff" d="M 97.433594 44.785156 C 97.4375 44.75 97.429688 44.71875 97.417969 44.683594 C 97.417969 44.683594 97.417969 44.679688 97.417969 44.679688 L 87.773438 19.449219 C 87.773438 19.445312 87.769531 19.445312 87.769531 19.441406 C 87.75 19.402344 87.730469 19.367188 87.695312 19.339844 L 66.492188 2.535156 C 66.457031 2.507812 66.417969 2.488281 66.371094 2.480469 C 66.371094 2.480469 66.367188 2.480469 66.363281 2.480469 L 49.054688 0.132812 C 49.019531 0.128906 48.984375 0.132812 48.953125 0.140625 L 40.703125 2.476562 L 40.46875 2.476562 C 40.421875 2.476562 40.375 2.492188 40.335938 2.511719 L 40.125 2.640625 L 19.820312 8.390625 C 19.816406 8.390625 19.8125 8.398438 19.804688 8.398438 C 19.777344 8.410156 19.753906 8.425781 19.730469 8.441406 C 19.722656 8.449219 19.710938 8.457031 19.703125 8.464844 C 19.699219 8.472656 19.695312 8.472656 19.691406 8.480469 L 1.910156 31.476562 C 1.902344 31.484375 1.902344 31.492188 1.898438 31.5 C 1.890625 31.511719 1.882812 31.519531 1.878906 31.53125 C 1.875 31.539062 1.875 31.546875 1.871094 31.550781 C 1.867188 31.566406 1.863281 31.578125 1.863281 31.59375 C 1.863281 31.601562 1.855469 31.609375 1.855469 31.617188 L 0.738281 51.84375 C 0.734375 51.863281 0.738281 51.882812 0.738281 51.898438 L 2.378906 62.128906 C 2.382812 62.140625 2.386719 62.152344 2.390625 62.167969 C 2.394531 62.175781 2.394531 62.183594 2.398438 62.191406 C 2.398438 62.195312 2.402344 62.195312 2.402344 62.199219 C 2.402344 62.199219 2.402344 62.203125 2.40625 62.207031 L 10.683594 77.917969 C 10.695312 77.945312 10.714844 77.96875 10.738281 77.988281 L 20.449219 86.542969 C 20.464844 86.558594 20.480469 86.574219 20.5 86.589844 L 31.730469 94.128906 C 31.757812 94.148438 31.792969 94.160156 31.832031 94.167969 L 49.445312 96.898438 L 49.449219 96.898438 C 49.449219 96.898438 49.449219 96.898438 49.453125 96.898438 C 49.464844 96.898438 49.476562 96.902344 49.492188 96.902344 C 49.507812 96.902344 49.527344 96.898438 49.542969 96.894531 C 49.546875 96.894531 49.546875 96.894531 49.546875 96.894531 C 49.550781 96.894531 49.550781 96.894531 49.550781 96.894531 C 49.554688 96.894531 49.554688 96.894531 49.554688 96.894531 L 49.554688 96.890625 C 49.554688 96.890625 49.558594 96.890625 49.558594 96.890625 C 49.558594 96.890625 49.558594 96.890625 49.5625 96.890625 L 78.34375 88.507812 C 78.355469 88.503906 78.363281 88.496094 78.371094 88.492188 C 78.398438 88.476562 78.421875 88.460938 78.441406 88.441406 C 78.453125 88.433594 78.46875 88.429688 78.476562 88.417969 L 95.988281 65.40625 C 96.015625 65.371094 96.027344 65.328125 96.03125 65.285156 C 96.03125 65.28125 96.039062 65.277344 96.039062 65.273438 Z M 95.546875 65.054688 L 87.972656 66.960938 L 96.824219 46.242188 Z M 64.8125 62.121094 L 36.90625 52.335938 L 57.953125 37.230469 Z M 57.957031 36.417969 L 36.964844 22.738281 L 64.253906 14.957031 Z M 57.65625 36.824219 L 36.617188 51.921875 L 36.617188 23.113281 Z M 36.109375 52.007812 L 12.234375 40.332031 L 36.109375 23.140625 Z M 41.28125 80 L 18.523438 67.292969 L 36.195312 52.878906 Z M 36.695312 52.796875 L 64.660156 62.601562 L 41.804688 80.035156 Z M 64.964844 63.003906 L 66.441406 83.851562 L 42.261719 80.320312 Z M 65.292969 61.945312 L 58.445312 37.101562 L 81.730469 39.421875 Z M 82.054688 39.835938 L 87.21875 67.003906 L 65.621094 62.351562 Z M 87.632812 66.46875 L 82.527344 39.605469 L 96.84375 44.914062 Z M 82.089844 38.632812 L 65.214844 14.976562 L 87.222656 19.730469 Z M 81.664062 38.90625 L 58.433594 36.59375 L 64.726562 15.160156 Z M 36.695312 22.289062 L 40.648438 3.101562 L 63.925781 14.527344 Z M 36.171875 22.316406 L 18.316406 16.367188 L 40.101562 3.246094 Z M 35.816406 22.730469 L 12.160156 39.761719 L 17.898438 16.761719 Z M 11.601562 39.902344 L 2.480469 31.625 L 17.253906 17.238281 Z M 17.492188 16.300781 L 4.507812 28.941406 L 19.296875 9.8125 Z M 11.441406 40.441406 L 2.863281 60.878906 L 2.375 32.210938 Z M 11.675781 41.191406 L 17.722656 66.945312 L 2.96875 61.9375 Z M 12.113281 40.835938 L 35.898438 52.464844 L 18.226562 66.878906 Z M 40.972656 80.40625 L 20.851562 86.054688 L 18.394531 67.800781 Z M 41.496094 80.785156 L 48.992188 96.203125 L 21.472656 86.40625 Z M 49.585938 96.265625 L 42.066406 80.804688 L 66.0625 84.304688 Z M 66.933594 83.644531 L 65.464844 62.835938 L 86.96875 67.46875 Z M 86.882812 68.1875 L 78.136719 87.949219 L 67.226562 84.058594 Z M 87.71875 67.546875 L 95.148438 65.675781 L 79.378906 86.398438 Z M 82.5 39.058594 L 87.578125 20.355469 L 96.742188 44.339844 Z M 66.519531 3.203125 L 86.53125 19.0625 L 64.914062 14.390625 Z M 49.039062 0.640625 L 62.585938 2.476562 L 42.558594 2.476562 Z M 66.039062 2.980469 L 64.425781 14.207031 L 41.554688 2.980469 Z M 18.132812 15.890625 L 20.097656 8.835938 L 38.480469 3.632812 Z M 1.242188 51.847656 L 1.976562 38.640625 L 2.3125 58.523438 Z M 11.109375 77.640625 L 4.390625 64.890625 L 19.007812 84.601562 Z M 3.316406 62.589844 L 17.84375 67.519531 L 20.257812 85.433594 Z M 22.449219 87.289062 L 46.886719 95.988281 L 31.964844 93.675781 Z M 66.757812 84.429688 L 77.453125 88.242188 L 50.816406 96 Z M 66.757812 84.429688 " fill-opacity="1" fill-rule="nonzero"/></g></g></g></g></svg>